<?xml version="1.0" encoding="UTF-8"?>
<svg width="100px" height="100px" viewBox="0 0 100 100" version="1.1" xmlns="http://www.w3.org/2000/svg" xmlns:xlink="http://www.w3.org/1999/xlink">
    <title>afrinic</title>
    <g id="Page-1" stroke="none" stroke-width="1" fill="none" fill-rule="evenodd">
        <g id="afrinic" fill-rule="nonzero">
            <g id="green" fill="#001F6D">
                <rect id="Rectangle" x="0" y="0" width="100" height="100"></rect>
            </g>
            <g id="afrinic-icon" transform="translate(36.000000, 18.000000)" fill="#FFFFFF">
                <g id="Group" transform="translate(0.500000, 0.500000)">
                    <path d="M2.854,5.262 C1.8,5.512 0.61,4.566 0.166,3.115 C-0.278,1.664 0.205,0.292 1.23,0.04 C2.275,-0.2 3.474,0.736 3.94,2.187 C4.385,3.617 3.9,5.011 2.857,5.262 L2.854,5.262 Z M1.346,63.977 C0.302,63.784 -0.22,62.43 0.186,60.96 C0.592,59.49 1.772,58.446 2.816,58.64 C3.86,58.834 4.382,60.187 3.976,61.657 C3.589,63.157 2.39,64.171 1.346,63.977 L1.346,63.977 Z M6.606,16.48 C5.059,16.867 3.28,15.455 2.622,13.308 C1.964,11.181 2.68,9.15 4.208,8.763 C5.736,8.376 7.534,9.788 8.192,11.935 C8.869,14.062 8.152,16.093 6.606,16.48 Z M4.788,55.835 C3.338,55.585 2.641,53.611 3.222,51.435 C3.802,49.269 5.465,47.702 6.916,47.955 C8.367,48.208 9.063,50.179 8.482,52.355 C7.902,54.521 6.239,56.088 4.788,55.835 Z" id="Shape"></path>
                    <path d="M8.908,30.2 C6.955,30.413 5.108,28.382 4.768,25.655 C4.428,22.928 5.774,20.549 7.728,20.317 C9.681,20.104 11.528,22.135 11.868,24.862 C12.208,27.589 10.862,29.987 8.908,30.2 L8.908,30.2 Z M7.67,43.63 C5.697,43.63 4.17,41.406 4.247,38.66 C4.324,35.914 5.987,33.66 7.96,33.66 C9.933,33.66 11.46,35.884 11.383,38.63 C11.286,41.376 9.623,43.63 7.67,43.63 Z" id="Shape"></path>
                    <path d="M14.44,10.85 C13.647,11.043 12.738,10.328 12.41,9.225 C12.08,8.142 12.43,7.098 13.222,6.905 C14.014,6.712 14.924,7.427 15.252,8.53 C15.582,9.613 15.232,10.657 14.44,10.85 Z M13.3,55.05 C12.507,54.915 12.12,53.89 12.43,52.787 C12.74,51.684 13.63,50.892 14.422,51.047 C15.215,51.182 15.602,52.207 15.292,53.31 C14.982,54.413 14.092,55.186 13.3,55.05 L13.3,55.05 Z M17.252,19.283 C16.092,19.583 14.757,18.509 14.254,16.903 C13.751,15.297 14.294,13.77 15.454,13.48 C16.614,13.19 17.949,14.254 18.452,15.86 C18.955,17.466 18.412,18.993 17.252,19.283 Z M15.89,48.9 C14.788,48.707 14.265,47.217 14.71,45.574 C15.155,43.931 16.393,42.77 17.495,42.974 C18.597,43.178 19.12,44.657 18.675,46.281 C18.23,47.925 16.992,49.105 15.89,48.911 L15.89,48.9 Z" id="Shape"></path>
                    <path d="M18.982,29.6 C17.512,29.755 16.12,28.227 15.868,26.177 C15.616,24.127 16.622,22.327 18.092,22.154 C19.562,21.999 20.974,23.527 21.206,25.577 C21.456,27.647 20.471,29.445 18.982,29.6 L18.982,29.6 Z M18.054,39.725 C16.554,39.725 15.424,38.042 15.482,35.973 C15.54,33.904 16.797,32.221 18.267,32.221 C19.767,32.221 20.917,33.884 20.839,35.973 C20.781,38.043 19.543,39.725 18.054,39.725 Z" id="Shape"></path>
                    <path d="M23.237,16.44 C22.695,16.575 22.077,16.073 21.845,15.338 C21.613,14.603 21.865,13.888 22.405,13.752 C22.945,13.616 23.565,14.119 23.797,14.854 C24.01,15.589 23.777,16.304 23.237,16.44 Z M22.463,46.648 C21.921,46.551 21.651,45.855 21.863,45.101 C22.075,44.347 22.675,43.805 23.217,43.901 C23.759,43.997 24.029,44.694 23.817,45.448 C23.605,46.202 23.005,46.744 22.463,46.648 Z M25.17,22.203 C24.377,22.396 23.468,21.681 23.12,20.578 C22.772,19.475 23.14,18.431 23.932,18.238 C24.724,18.045 25.634,18.78 25.982,19.863 C26.312,20.965 25.962,22.01 25.17,22.203 Z M24.223,42.453 C23.469,42.318 23.121,41.313 23.411,40.19 C23.711,39.068 24.571,38.275 25.306,38.41 C26.06,38.545 26.408,39.55 26.118,40.673 C25.818,41.775 24.978,42.588 24.223,42.453 Z" id="Shape"></path>
                    <path d="M26.35,29.262 C25.344,29.378 24.377,28.334 24.223,26.922 C24.049,25.51 24.745,24.292 25.751,24.176 C26.757,24.06 27.724,25.104 27.878,26.516 C28.032,27.928 27.356,29.146 26.35,29.262 Z M25.712,36.166 C24.706,36.166 23.912,35.026 23.952,33.613 C23.992,32.2 24.852,31.041 25.867,31.041 C26.873,31.041 27.667,32.181 27.627,33.594 C27.569,35.024 26.727,36.166 25.712,36.166 L25.712,36.166 Z" id="Shape"></path>
                </g>
                <g id="Group">
                    <path d="M2.854,5.262 C1.8,5.512 0.61,4.566 0.166,3.115 C-0.278,1.664 0.205,0.292 1.23,0.04 C2.275,-0.2 3.474,0.736 3.94,2.187 C4.385,3.617 3.9,5.011 2.857,5.262 L2.854,5.262 Z M1.346,63.977 C0.302,63.784 -0.22,62.43 0.186,60.96 C0.592,59.49 1.772,58.446 2.816,58.64 C3.86,58.834 4.382,60.187 3.976,61.657 C3.589,63.157 2.39,64.171 1.346,63.977 L1.346,63.977 Z M6.606,16.48 C5.059,16.867 3.28,15.455 2.622,13.308 C1.964,11.181 2.68,9.15 4.208,8.763 C5.736,8.376 7.534,9.788 8.192,11.935 C8.869,14.062 8.152,16.093 6.606,16.48 Z M4.788,55.835 C3.338,55.585 2.641,53.611 3.222,51.435 C3.802,49.269 5.465,47.702 6.916,47.955 C8.367,48.208 9.063,50.179 8.482,52.355 C7.902,54.521 6.239,56.088 4.788,55.835 Z" id="Shape"></path>
                    <path d="M8.908,30.2 C6.955,30.413 5.108,28.382 4.768,25.655 C4.428,22.928 5.774,20.549 7.728,20.317 C9.681,20.104 11.528,22.135 11.868,24.862 C12.208,27.589 10.862,29.987 8.908,30.2 L8.908,30.2 Z M7.67,43.63 C5.697,43.63 4.17,41.406 4.247,38.66 C4.324,35.914 5.987,33.66 7.96,33.66 C9.933,33.66 11.46,35.884 11.383,38.63 C11.286,41.376 9.623,43.63 7.67,43.63 Z" id="Shape"></path>
                    <path d="M14.44,10.85 C13.647,11.043 12.738,10.328 12.41,9.225 C12.08,8.142 12.43,7.098 13.222,6.905 C14.014,6.712 14.924,7.427 15.252,8.53 C15.582,9.613 15.232,10.657 14.44,10.85 Z M13.3,55.05 C12.507,54.915 12.12,53.89 12.43,52.787 C12.74,51.684 13.63,50.892 14.422,51.047 C15.215,51.182 15.602,52.207 15.292,53.31 C14.982,54.413 14.092,55.186 13.3,55.05 L13.3,55.05 Z M17.252,19.283 C16.092,19.583 14.757,18.509 14.254,16.903 C13.751,15.297 14.294,13.77 15.454,13.48 C16.614,13.19 17.949,14.254 18.452,15.86 C18.955,17.466 18.412,18.993 17.252,19.283 Z M15.89,48.9 C14.788,48.707 14.265,47.217 14.71,45.574 C15.155,43.931 16.393,42.77 17.495,42.974 C18.597,43.178 19.12,44.657 18.675,46.281 C18.23,47.925 16.992,49.105 15.89,48.911 L15.89,48.9 Z" id="Shape"></path>
                    <path d="M18.982,29.6 C17.512,29.755 16.12,28.227 15.868,26.177 C15.616,24.127 16.622,22.327 18.092,22.154 C19.562,21.999 20.974,23.527 21.206,25.577 C21.456,27.647 20.471,29.445 18.982,29.6 L18.982,29.6 Z M18.054,39.725 C16.554,39.725 15.424,38.042 15.482,35.973 C15.54,33.904 16.797,32.221 18.267,32.221 C19.767,32.221 20.917,33.884 20.839,35.973 C20.781,38.043 19.543,39.725 18.054,39.725 Z" id="Shape"></path>
                    <path d="M23.237,16.44 C22.695,16.575 22.077,16.073 21.845,15.338 C21.613,14.603 21.865,13.888 22.405,13.752 C22.945,13.616 23.565,14.119 23.797,14.854 C24.01,15.589 23.777,16.304 23.237,16.44 Z M22.463,46.648 C21.921,46.551 21.651,45.855 21.863,45.101 C22.075,44.347 22.675,43.805 23.217,43.901 C23.759,43.997 24.029,44.694 23.817,45.448 C23.605,46.202 23.005,46.744 22.463,46.648 Z M25.17,22.203 C24.377,22.396 23.468,21.681 23.12,20.578 C22.772,19.475 23.14,18.431 23.932,18.238 C24.724,18.045 25.634,18.78 25.982,19.863 C26.312,20.965 25.962,22.01 25.17,22.203 Z M24.223,42.453 C23.469,42.318 23.121,41.313 23.411,40.19 C23.711,39.068 24.571,38.275 25.306,38.41 C26.06,38.545 26.408,39.55 26.118,40.673 C25.818,41.775 24.978,42.588 24.223,42.453 Z" id="Shape"></path>
                    <path d="M26.35,29.262 C25.344,29.378 24.377,28.334 24.223,26.922 C24.049,25.51 24.745,24.292 25.751,24.176 C26.757,24.06 27.724,25.104 27.878,26.516 C28.032,27.928 27.356,29.146 26.35,29.262 Z M25.712,36.166 C24.706,36.166 23.912,35.026 23.952,33.613 C23.992,32.2 24.852,31.041 25.867,31.041 C26.873,31.041 27.667,32.181 27.627,33.594 C27.569,35.024 26.727,36.166 25.712,36.166 L25.712,36.166 Z" id="Shape"></path>
                </g>
            </g>
        </g>
    </g>
</svg>