<?xml version="1.0" encoding="UTF-8"?>
<svg width="100px" height="100px" viewBox="0 0 100 100" version="1.1" xmlns="http://www.w3.org/2000/svg" xmlns:xlink="http://www.w3.org/1999/xlink">
    <title>apnic</title>
    <g id="Page-1" stroke="none" stroke-width="1" fill="none" fill-rule="evenodd">
        <g id="apnic" fill-rule="nonzero">
            <g id="green" fill="#001F6D">
                <rect id="Rectangle" x="0" y="0" width="100" height="100"></rect>
            </g>
            <g id="g4344" transform="translate(25.000000, 26.000000)" fill="#FFFFFF">
                <g id="g4354" transform="translate(26.477415, 28.321355)">
                    <path d="M4.85809875,0 C5.92688047,0.00485809875 6.86255029,0.484838255 7.53005306,1.17468828 C8.20047069,1.86648154 8.64547254,2.80798108 8.64547254,3.86024527 C8.60272127,5.94048315 6.94805283,7.62235694 4.83380826,7.66705145 C2.76328657,7.65733525 0.981335947,6.02598569 0.958017073,3.86024527 C0.985222426,1.7071359 2.73608122,0.0174891555 4.85809875,0" id="path4356"></path>
                </g>
                <g id="g4358" transform="translate(27.424939, 12.956938)">
                    <path d="M3.886479,7.772958 C1.81595731,7.76129856 0.0340066913,6.13189224 0.0106878173,3.96420858 C0.0369215505,1.81012759 1.78875196,0.123395708 3.91076949,0.102991693 C4.97955122,0.107849792 5.91424942,0.587829949 6.58175219,1.27767997 C7.25216981,1.97335971 7.69814328,2.91291601 7.69814328,3.96420858 C7.65539201,6.04444646 6.00072358,7.72534863 3.886479,7.772958" id="path4360"></path>
                </g>
                <g id="g4362" transform="translate(14.954297, 28.321355)">
                    <path d="M4.85809875,0 C5.92688048,0.00485809875 6.86157867,0.484838255 7.53005306,1.17468828 C8.19949907,1.86648154 8.64450092,2.80798108 8.64450092,3.86024527 C8.60272127,5.94048315 6.94610959,7.62235694 4.83380826,7.66705145 C2.76328657,7.65733525 0.980364328,6.02598569 0.957045454,3.86024527 C0.984250807,1.7071359 2.7351096,0.0174891555 4.85809875,0" id="path4364"></path>
                </g>
                <g id="g4366" transform="translate(15.901820, 12.956938)">
                    <path d="M3.886479,7.772958 C1.81595731,7.76129856 0.0330350715,6.13189224 0.00874457775,3.96420858 C0.0369215505,1.81012759 1.78778034,0.123395708 3.91076949,0.102991693 C4.97955122,0.107849792 5.91424942,0.587829949 6.58175219,1.27767997 C7.25216981,1.97335971 7.69717166,2.91291601 7.69717166,3.96420858 C7.65539201,6.04444646 5.99878034,7.72534863 3.886479,7.772958" id="path4368"></path>
                </g>
                <g id="g4370" transform="translate(0.948592, 8.932295)">
                    <path d="M20.4040147,36.9215505 C12.5698447,34.556628 10.6800443,27.9330962 8.46475126,21.0054474 C6.09885717,13.5881022 4.5258048,6.9956622 9.16723234,1.76057499 L7.83514166,0.568397554 C0.841422703,7.58057729 -0.718998615,15.2524868 1.76737633,23.0361327 C4.811461,32.5716089 11.4184753,37.2995106 19.9697007,38.9444628 L20.4040147,36.9215505 Z" id="path4372"></path>
                </g>
                <g id="g4374" transform="translate(28.017821, 0.812760)">
                    <path d="M13.6026765,38.86479 C19.6276906,32.6085304 22.2675814,24.9511952 19.2234968,15.4147473 C16.734207,7.63207314 11.0065085,2.26970374 1.22909898,0.562567835 L0.831706506,2.30176719 C7.65927849,3.91174111 10.210752,10.1932628 12.5776177,17.6086647 C14.7929107,24.5353419 17.0946779,31.0286767 12.0801484,37.4676008 L13.6026765,38.86479 Z" id="path4376"></path>
                </g>
            </g>
        </g>
    </g>
</svg>