<?xml version="1.0" encoding="UTF-8"?>
<svg width="100px" height="100px" viewBox="0 0 100 100" version="1.1" xmlns="http://www.w3.org/2000/svg" xmlns:xlink="http://www.w3.org/1999/xlink">
    <title>arin</title>
    <g id="Page-1" stroke="none" stroke-width="1" fill="none" fill-rule="evenodd">
        <g id="arin" fill-rule="nonzero">
            <g id="green" fill="#001F6D">
                <rect id="Rectangle" x="0" y="0" width="100" height="100"></rect>
            </g>
            <g id="Group" transform="translate(18.000000, 33.000000)" fill="#FFFFFF">
                <path d="M24.775,31.632 C22.435,31.632 22.435,30.567 22.435,30.036 C22.435,29.291 23.075,27.162 24.989,22.159 C25.095,21.944 25.204,21.839 25.204,21.629 L26.482,17.796 L30.74,6.396 L30.846,6.396 L34.9,17.688 L39.7,17.582 L33.273,0.53 C33.057,0 32.847,0 32.528,0 C31.998,0 31.783,0 31.678,0.426 C27.208,11.389 23.695,21.182 20.928,29.271 C20.288,31.071 19.428,31.611 18.588,31.611 C17.31,31.611 16.883,31.826 16.883,32.251 C16.883,32.781 16.989,32.996 17.203,32.996 C17.523,32.996 18.053,32.89 20.823,32.89 C26.253,32.89 26.891,32.996 27.21,32.996 C27.635,32.996 27.74,32.781 27.74,32.251 C27.74,31.826 27.525,31.611 24.76,31.611 L24.775,31.632 Z M47.875,31.632 C46.065,31.632 45.107,31.102 44.362,29.502 C43.512,27.702 42.447,24.924 41.274,21.944 C39.678,21.944 37.974,21.944 36.474,21.838 L39.669,30.672 C39.669,31.417 39.029,31.632 37.219,31.632 C36.259,31.632 35.304,31.738 35.304,32.162 C35.304,32.586 35.304,33.012 35.519,33.012 C35.839,33.012 36.159,32.906 42.332,32.906 L48.719,33.012 C49.144,33.012 49.249,32.482 49.249,32.162 C49.249,31.737 48.289,31.632 47.865,31.632 L47.875,31.632 Z" id="Shape"></path>
                <path d="M0,19.844 C0,18.467 14.272,17.359 32,17.359 C49.728,17.359 64,18.467 64,19.844 C64,21.221 49.73,22.33 32,22.33 C14.27,22.33 0,21.22 0,19.844 Z" id="Path"></path>
            </g>
        </g>
    </g>
</svg>