<?xml version="1.0" encoding="UTF-8"?>
<svg width="100px" height="100px" viewBox="0 0 100 100" version="1.1" xmlns="http://www.w3.org/2000/svg" xmlns:xlink="http://www.w3.org/1999/xlink">
    <title>lacnic</title>
    <g id="Page-1" stroke="none" stroke-width="1" fill="none" fill-rule="evenodd">
        <g id="lacnic" fill-rule="nonzero">
            <g id="green" fill="#001F6D">
                <rect id="Rectangle" x="0" y="0" width="100" height="100"></rect>
            </g>
            <g id="g3435" transform="translate(33.000000, 14.000000)">
                <g id="g1486" transform="translate(21.096184, 32.972760) scale(-1, 1) rotate(-180.000000) translate(-21.096184, -32.972760) translate(9.096184, 21.472760)" fill="#366FFF">
                    <path d="M12,0 C4.818,0 0.863,4.21428571 0.863,11.3607143 C0.863,18.6928571 5,22.5428571 12,22.5428571 C19.0035,22.5428571 23.1335,18.6928571 23.1335,11.3607143 C23.1335,4.21428571 19.1855,0 12,0" id="path1488"></path>
                </g>
                <g id="g1490" transform="translate(23.096184, 29.472760) scale(-1, 1) rotate(-180.000000) translate(-23.096184, -29.472760) translate(16.096184, 22.472760)" fill="#FFFFFF">
                    <path d="M7,0 C2.688,0 0.3185,2.478 0.3185,6.6815 C0.3185,10.99 2.7965,13.2545 7,13.2545 C11.2035,13.2545 13.678,10.99 13.678,6.6815 C13.678,2.478 11.3085,0 7,0" id="path1492"></path>
                </g>
                <g id="g1494" transform="translate(24.096184, 28.972760) scale(-1, 1) rotate(-180.000000) translate(-24.096184, -28.972760) translate(19.096184, 24.472760)" fill="#366FFF">
                    <path d="M5,-7.10542736e-15 C2.417,-7.10542736e-15 0.9925,1.55833333 0.9925,4.19833333 C0.9925,6.908 2.48,8.33066667 5,8.33066667 C7.5235,8.33066667 9.011,6.908 9.011,4.19833333 C9.011,1.55833333 7.5865,-7.10542736e-15 5,-7.10542736e-15" id="path1496"></path>
                </g>
                <g id="g1498" transform="translate(18.096184, 52.472760) scale(-1, 1) rotate(-180.000000) translate(-18.096184, -52.472760) translate(11.096184, 45.472760)" fill="#FFFFFF">
                    <path d="M7,0 C2.688,0 0.3185,2.478 0.3185,6.678 C0.3185,10.99 2.8,13.251 7,13.251 C11.2035,13.251 13.678,10.99 13.678,6.678 C13.678,2.478 11.3085,0 7,0" id="path1500"></path>
                </g>
                <g id="g1502" transform="translate(17.096184, 53.972760) scale(-1, 1) rotate(-180.000000) translate(-17.096184, -53.972760) translate(12.096184, 49.472760)" fill="#366FFF">
                    <path d="M5,0 C2.4135,0 0.9925,1.55833333 0.9925,4.19833333 C0.9925,6.908 2.48,8.33066667 5,8.33066667 C7.5235,8.33066667 9.011,6.908 9.011,4.19833333 C9.011,1.55833333 7.5865,0 5,0" id="path1504"></path>
                </g>
                <g id="g1506" transform="translate(16.596184, 53.972760) scale(-1, 1) rotate(-180.000000) translate(-16.596184, -53.972760) translate(14.096184, 51.472760)" fill="#FFFFFF">
                    <path d="M2.5,0 C0.946,0 0.092,0.889 0.092,2.4045 C0.092,3.955 0.988,4.767 2.5,4.767 C4.012,4.767 4.9045,3.955 4.9045,2.4045 C4.9045,0.889 4.054,0 2.5,0" id="path1508"></path>
                </g>
                <g id="g1510" transform="translate(7.096184, 15.472760) scale(-1, 1) rotate(-180.000000) translate(-7.096184, -15.472760) translate(0.096184, 8.472760)" fill="#FFFFFF">
                    <path d="M7,0 C2.6915,0 0.322,2.478 0.322,6.6815 C0.322,10.9935 2.8,13.2545 7,13.2545 C11.2035,13.2545 13.685,10.9935 13.685,6.6815 C13.685,2.478 11.312,0 7,0" id="path1512"></path>
                </g>
                <g id="g1514" transform="translate(8.096184, 16.972760) scale(-1, 1) rotate(-180.000000) translate(-8.096184, -16.972760) translate(3.096184, 12.472760)" fill="#366FFF">
                    <path d="M5,-7.10542736e-15 C2.417,-7.10542736e-15 0.9925,1.55833333 0.9925,4.19833333 C0.9925,6.908 2.48,8.33066667 5,8.33066667 C7.5235,8.33066667 9.011,6.908 9.011,4.19833333 C9.011,1.55833333 7.5865,-7.10542736e-15 5,-7.10542736e-15" id="path1516"></path>
                </g>
                <g id="g1518" transform="translate(8.596184, 17.972760) scale(-1, 1) rotate(-180.000000) translate(-8.596184, -17.972760) translate(6.096184, 15.472760)" fill="#FFFFFF">
                    <path d="M2.5,-7.10542736e-15 C0.9495,-7.10542736e-15 0.0955,0.8925 0.0955,2.4045 C0.0955,3.955 0.988,4.7705 2.5,4.7705 C4.012,4.7705 4.9045,3.955 4.9045,2.4045 C4.9045,0.8925 4.0505,-7.10542736e-15 2.5,-7.10542736e-15" id="path1520"></path>
                </g>
                <g id="g1522" transform="translate(17.096184, 4.972760) scale(-1, 1) rotate(-180.000000) translate(-17.096184, -4.972760) translate(12.096184, 0.472760)" fill="#366FFF">
                    <path d="M5,0 C2.4135,0 0.989,1.55833333 0.989,4.19833333 C0.989,6.908 2.48,8.33066667 5,8.33066667 C7.5235,8.33066667 9.011,6.908 9.011,4.19833333 C9.011,1.55833333 7.5865,0 5,0" id="path1524"></path>
                </g>
                <g id="g1526" transform="translate(16.596184, 5.972760) scale(-1, 1) rotate(-180.000000) translate(-16.596184, -5.972760) translate(14.096184, 3.472760)" fill="#FFFFFF">
                    <path d="M2.5,0 C0.9495,0 0.092,0.8925 0.092,2.4045 C0.092,3.955 0.9845,4.7705 2.5,4.7705 C4.012,4.7705 4.9045,3.955 4.9045,2.4045 C4.9045,0.8925 4.0505,0 2.5,0" id="path1528"></path>
                </g>
                <g id="g1530" transform="translate(14.596184, 65.972760) scale(-1, 1) rotate(-180.000000) translate(-14.596184, -65.972760) translate(10.096184, 61.472760)" fill="#366FFF">
                    <path d="M5,0 C2.41,0 0.989,1.55833333 0.989,4.202 C0.989,6.91166667 2.4765,8.33433333 5,8.33433333 C7.52,8.33433333 9.004,6.91166667 9.004,4.202 C9.004,1.55833333 7.583,0 5,0" id="path1532"></path>
                </g>
                <g id="g1534" transform="translate(14.096184, 66.472760) scale(-1, 1) rotate(-180.000000) translate(-14.096184, -66.472760) translate(11.096184, 63.472760)" fill="#FFFFFF">
                    <path d="M2.75,0 C1.08875,0 0.17375,0.95625 0.17375,2.57625 C0.17375,4.245 1.13,5.115 2.75,5.115 C4.37375,5.115 5.3225,4.245 5.3225,2.57625 C5.3225,0.95625 4.41125,0 2.75,0" id="path1536"></path>
                </g>
            </g>
        </g>
    </g>
</svg>