<?xml version="1.0" encoding="UTF-8"?>
<svg width="100px" height="100px" viewBox="0 0 100 100" version="1.1" xmlns="http://www.w3.org/2000/svg" xmlns:xlink="http://www.w3.org/1999/xlink">
    <title>ripencc</title>
    <g id="Page-1" stroke="none" stroke-width="1" fill="none" fill-rule="evenodd">
        <g id="ripencc" fill-rule="nonzero">
            <g id="green" fill="#001F6D">
                <rect id="Rectangle" x="0" y="0" width="100" height="100"></rect>
            </g>
            <path d="M65.0115334,45.8773806 L65.0115334,45.8773806 L65.0115334,29.6735717 L50,21 L34.9884666,29.6735717 L34.9884666,45.8576679 L34.9884666,45.8773806 L21,53.9595723 L21,71.3264283 L36.0115331,80 L50,71.9178082 L63.9884669,80 L79,71.3264283 L79,53.9595723 L65.0115334,45.8773806 Z M50,53 L38,46 L50,39 L62,46 L50,53 Z M37,48 L49,55 L49,69 L37,62 L37,48 Z M51,55 L63,48 L63,62 L51,69 L51,55 Z M37,31.3820537 L50,24 L63,31.3820537 L63,45 L50,37.6179463 L37,45 L37,31.3820537 Z M23,70.594504 L23,55.8029491 L34.977111,49 L34.977111,63.772118 L48,71.1776139 L36.0031568,78 L23,70.594504 Z M77,70.613941 L63.9968429,78 L52,71.1776139 L65.0228887,63.772118 L65.0228887,49 L77,55.8029491 L77,70.613941 Z" id="Shape" fill="#FFFFFF"></path>
        </g>
    </g>
</svg>