<?xml version="1.0" encoding="UTF-8" standalone="no"?><!DOCTYPE svg PUBLIC "-//W3C//DTD SVG 1.1//EN" "http://www.w3.org/Graphics/SVG/1.1/DTD/svg11.dtd"><svg width="100%" height="100%" viewBox="0 0 559 92" version="1.1" xmlns="http://www.w3.org/2000/svg" xmlns:xlink="http://www.w3.org/1999/xlink" xml:space="preserve" xmlns:serif="http://www.serif.com/" style="fill-rule:evenodd;clip-rule:evenodd;stroke-linejoin:round;stroke-miterlimit:1.41421;"><g><path d="M22.432,56.991c7.388,0 10.09,-4.145 10.09,-10.092c0,-5.944 -2.702,-10.178 -10.09,-10.178l-6.036,0l0,20.27l6.036,0Zm26.397,27.116l-17.748,0l-8.559,-14.053l-6.126,0l0,14.053l-16.396,0l0,-61.261l23.244,0c16.486,0 25.766,10.45 25.766,24.053c0,8.829 -3.874,15.857 -11.082,19.822l10.901,17.386Z" style="fill:#fff;fill-rule:nonzero;"/><path d="M203.479,36.629l-16.216,0l0,-13.783l48.829,0l0,13.783l-16.216,0l0,47.478l-16.397,0l0,-47.478Z" style="fill:#fff;fill-rule:nonzero;"/><rect x="243.83" y="22.846" width="16.396" height="61.261" style="fill:#fff;fill-rule:nonzero;"/><path d="M286.618,53.568l0,30.539l-15.406,0l0,-62.073c0,-0.54 0.27,-0.99 1.261,-0.178l38.469,31.712l0,-30.722l15.407,0l0,62.163c0,0.721 -0.271,0.992 -1.262,0.179l-38.469,-31.62Z" style="fill:#fff;fill-rule:nonzero;"/><path d="M361.652,52.395l-6.127,14.234l12.433,0l-6.306,-14.234Zm-13.604,31.712l-16.036,0l29.82,-62.343c0.27,-0.631 0.81,-0.631 1.081,0l29.73,62.343l-16.937,0l-2.343,-5.223c0.091,0 -23.063,0 -23.063,0l-2.252,5.223Z" style="fill:#fff;fill-rule:nonzero;"/><path d="M402.274,36.629l-16.216,0l0,-13.783l48.83,0l0,13.783l-16.217,0l0,47.478l-16.397,0l0,-47.478Z" style="fill:#fff;fill-rule:nonzero;"/><path d="M531.984,56.991c7.388,0 10.09,-4.145 10.09,-10.092c0,-5.944 -2.702,-10.178 -10.09,-10.178l-6.036,0l0,20.27l6.036,0Zm26.397,27.116l-17.748,0l-8.559,-14.053l-6.126,0l0,14.053l-16.396,0l0,-61.261l23.244,0c16.486,0 25.765,10.45 25.765,24.053c0,8.829 -3.874,15.857 -11.081,19.822l10.901,17.386Z" style="fill:#fff;fill-rule:nonzero;"/><path d="M469.024,70.611c-9.459,0 -17.126,-7.667 -17.126,-17.126c0,-9.458 7.667,-17.126 17.126,-17.126c9.458,0 17.125,7.668 17.125,17.126c0,9.459 -7.667,17.126 -17.125,17.126Zm0,-50.042c-18.179,0 -32.917,14.737 -32.917,32.916c0,18.18 14.738,32.916 32.917,32.916c18.179,0 32.916,-14.736 32.916,-32.916c0,-18.179 -14.737,-32.916 -32.916,-32.916Z" style="fill:#fff;fill-rule:nonzero;"/><path d="M164.122,22.846l0,37.388c0,6.937 -3.243,10.901 -10.18,10.901c-6.938,0 -10.181,-3.964 -10.181,-10.901l0,-37.388l-14.524,0c-0.552,1.365 -1.187,2.687 -1.873,3.981l0,33.586c0,16.488 11.262,24.595 26.578,24.595c15.315,0 26.577,-8.107 26.577,-24.595l0,-37.567l-16.397,0Z" style="fill:#fff;fill-rule:nonzero;"/><path d="M122.425,24.973c-1.721,1.721 -4.51,1.721 -6.231,0c-1.72,-1.72 -1.72,-4.509 0,-6.23c1.721,-1.72 4.51,-1.72 6.231,0c1.72,1.721 1.72,4.51 0,6.23Zm6.929,-13.613c-8.733,1.167 -16.978,4.971 -23.478,11.471c-2.064,2.064 -4.546,4.995 -7.02,8.322l-4.995,0.354c-0.419,0.03 -0.835,0.003 -1.239,-0.078c0.927,-1.454 1.584,-3.033 1.969,-4.668c0.065,-0.276 -0.011,-0.558 -0.202,-0.749c-0.192,-0.191 -0.473,-0.268 -0.749,-0.203c-2.658,0.625 -5.168,1.965 -7.227,4.024c-1.483,1.484 -3.596,4.205 -5.08,6.789c-0.188,0.326 -0.129,0.74 0.072,1.139c-0.327,0.499 -0.558,1.043 -0.691,1.608c-0.022,0.092 0.003,0.186 0.067,0.25c0.064,0.063 0.157,0.089 0.25,0.067c0.565,-0.132 1.109,-0.363 1.608,-0.69c0.399,0.2 0.814,0.259 1.14,0.071c1.426,-0.819 2.894,-1.83 4.173,-2.821c0.469,-0.215 0.965,-0.398 1.475,-0.554l5.305,1.421c-1.048,1.634 -2.045,3.293 -2.951,4.936c-0.492,0.89 -0.32,2.037 0.242,3.168c-1.141,1.411 -2.358,3.13 -3.314,4.795c-0.187,0.326 -0.129,0.74 0.073,1.139c-0.328,0.499 -0.559,1.043 -0.692,1.609c-0.021,0.092 0.004,0.185 0.068,0.249c0.064,0.064 0.157,0.089 0.249,0.068c0.566,-0.133 1.11,-0.364 1.609,-0.691c0.399,0.2 0.813,0.259 1.14,0.071c1.664,-0.956 3.383,-2.172 4.794,-3.313c1.131,0.562 2.278,0.734 3.169,0.242c1.643,-0.906 3.303,-1.903 4.936,-2.951l1.421,5.305c-0.156,0.51 -0.339,1.006 -0.553,1.475c-0.991,1.279 -2.003,2.746 -2.823,4.174c-0.187,0.326 -0.128,0.74 0.072,1.139c-0.327,0.499 -0.558,1.044 -0.691,1.609c-0.021,0.092 0.004,0.185 0.068,0.249c0.064,0.064 0.157,0.09 0.249,0.068c0.566,-0.133 1.11,-0.364 1.609,-0.691c0.399,0.201 0.813,0.259 1.139,0.071c2.584,-1.483 5.305,-3.596 6.788,-5.08c2.059,-2.059 3.399,-4.569 4.025,-7.226c0.065,-0.276 -0.011,-0.557 -0.203,-0.749c-0.191,-0.191 -0.473,-0.267 -0.748,-0.202c-1.636,0.384 -3.216,1.041 -4.669,1.968c-0.08,-0.403 -0.108,-0.82 -0.078,-1.239l0.354,-4.995c3.327,-2.473 6.258,-4.956 8.321,-7.019c6.5,-6.5 10.304,-14.745 11.472,-23.479c0.017,-0.124 -0.026,-0.249 -0.116,-0.338c-0.088,-0.089 -0.213,-0.132 -0.338,-0.115Z" style="fill:#fff;fill-rule:nonzero;"/><path d="M117.233,19.782c-1.147,1.147 -1.147,3.006 0,4.153c1.147,1.147 3.006,1.147 4.153,0c1.147,-1.147 1.147,-3.006 0,-4.153c-1.147,-1.147 -3.006,-1.147 -4.153,0Z" style="fill:#fff;fill-rule:nonzero;"/><path d="M115.385,40.994c5.032,11.274 2.962,24.975 -6.275,34.212c-5.129,5.129 -11.929,8.281 -19.147,8.877c-2.4,0.197 -4.755,-0.668 -6.461,-2.374c-0.252,-0.252 -0.49,-0.524 -0.708,-0.808c-1.703,-2.219 -2.157,-5.115 -1.216,-7.749c2.676,-7.486 7.184,-14.359 10.27,-18.55c-0.489,0.189 -1.006,0.291 -1.545,0.227c-0.439,0.201 -0.897,0.358 -1.371,0.47c-0.868,0.205 -1.761,-0.048 -2.389,-0.676c-0.627,-0.626 -0.879,-1.519 -0.675,-2.387c0.111,-0.474 0.269,-0.932 0.47,-1.372c-0.083,-0.702 0.047,-1.389 0.392,-1.99c0.026,-0.045 0.061,-0.095 0.088,-0.141c-4.125,3.083 -11.23,7.837 -19.033,10.626c-2.638,0.944 -5.536,0.491 -7.752,-1.21c-0.284,-0.218 -0.555,-0.455 -0.807,-0.707c-1.705,-1.705 -2.57,-4.063 -2.371,-6.467c0.596,-7.219 3.748,-14.019 8.876,-19.147c9.321,-9.321 23.185,-11.342 34.516,-6.135c0.524,-0.632 1.038,-1.235 1.545,-1.812c-4.338,-2.105 -9.19,-3.32 -14.336,-3.32c-18.181,0 -32.92,14.739 -32.92,32.92c0,18.182 14.739,32.92 32.92,32.92c18.182,0 32.921,-14.738 32.921,-32.92c0,-5.026 -1.16,-9.771 -3.174,-14.032c-0.579,0.508 -1.184,1.022 -1.818,1.545Z" style="fill:#fff;fill-rule:nonzero;"/><path d="M122.425,24.973c-1.721,1.721 -4.51,1.721 -6.231,0c-1.72,-1.72 -1.72,-4.509 0,-6.23c1.721,-1.72 4.51,-1.72 6.231,0c1.72,1.721 1.72,4.51 0,6.23Zm6.929,-13.613c-8.733,1.167 -16.978,4.971 -23.478,11.471c-2.064,2.064 -4.546,4.995 -7.02,8.322l-4.995,0.354c-0.419,0.03 -0.835,0.003 -1.239,-0.078c0.927,-1.454 1.584,-3.033 1.969,-4.668c0.065,-0.276 -0.011,-0.558 -0.202,-0.749c-0.192,-0.191 -0.473,-0.268 -0.749,-0.203c-2.658,0.625 -5.168,1.965 -7.227,4.024c-1.483,1.484 -3.596,4.205 -5.08,6.789c-0.188,0.326 -0.129,0.74 0.072,1.139c-0.327,0.499 -0.558,1.043 -0.691,1.608c-0.022,0.092 0.003,0.186 0.067,0.25c0.064,0.063 0.157,0.089 0.25,0.067c0.565,-0.132 1.109,-0.363 1.608,-0.69c0.399,0.2 0.814,0.259 1.14,0.071c1.426,-0.819 2.894,-1.83 4.173,-2.821c0.469,-0.215 0.965,-0.398 1.475,-0.554l5.305,1.421c-1.048,1.634 -2.045,3.293 -2.951,4.936c-0.492,0.89 -0.32,2.037 0.242,3.168c-1.141,1.411 -2.358,3.13 -3.314,4.795c-0.187,0.326 -0.129,0.74 0.073,1.139c-0.328,0.499 -0.559,1.043 -0.692,1.609c-0.021,0.092 0.004,0.185 0.068,0.249c0.064,0.064 0.157,0.089 0.249,0.068c0.566,-0.133 1.11,-0.364 1.609,-0.691c0.399,0.2 0.813,0.259 1.14,0.071c1.664,-0.956 3.383,-2.172 4.794,-3.313c1.131,0.562 2.278,0.734 3.169,0.242c1.643,-0.906 3.303,-1.903 4.936,-2.951l1.421,5.305c-0.156,0.51 -0.339,1.006 -0.553,1.475c-0.991,1.279 -2.003,2.746 -2.823,4.174c-0.187,0.326 -0.128,0.74 0.072,1.139c-0.327,0.499 -0.558,1.044 -0.691,1.609c-0.021,0.092 0.004,0.185 0.068,0.249c0.064,0.064 0.157,0.09 0.249,0.068c0.566,-0.133 1.11,-0.364 1.609,-0.691c0.399,0.201 0.813,0.259 1.139,0.071c2.584,-1.483 5.305,-3.596 6.788,-5.08c2.059,-2.059 3.399,-4.569 4.025,-7.226c0.065,-0.276 -0.011,-0.557 -0.203,-0.749c-0.191,-0.191 -0.473,-0.267 -0.748,-0.202c-1.636,0.384 -3.216,1.041 -4.669,1.968c-0.08,-0.403 -0.108,-0.82 -0.078,-1.239l0.354,-4.995c3.327,-2.473 6.258,-4.956 8.321,-7.019c6.5,-6.5 10.304,-14.745 11.472,-23.479c0.017,-0.124 -0.026,-0.249 -0.116,-0.338c-0.088,-0.089 -0.213,-0.132 -0.338,-0.115Z" style="fill:#fff;fill-rule:nonzero;"/><path d="M117.233,19.782c-1.147,1.147 -1.147,3.006 0,4.153c1.147,1.147 3.006,1.147 4.153,0c1.147,-1.147 1.147,-3.006 0,-4.153c-1.147,-1.147 -3.006,-1.147 -4.153,0Z" style="fill:#fff;fill-rule:nonzero;"/><path d="M79.167,41.233c-0.004,-0.003 -0.005,-0.007 -0.009,-0.01c-0.003,-0.004 -0.007,-0.005 -0.011,-0.009c-0.283,-0.283 -0.479,-0.626 -0.601,-0.991c-3.142,3.209 -5.52,6.166 -7.278,8.89c2.724,-1.759 5.681,-4.136 8.89,-7.278c-0.366,-0.123 -0.708,-0.318 -0.991,-0.602Z" style="fill:#fff;fill-rule:nonzero;"/><path d="M99.934,62.001c-0.003,-0.004 -0.005,-0.008 -0.008,-0.011c-0.004,-0.003 -0.008,-0.005 -0.011,-0.009c-0.284,-0.283 -0.48,-0.625 -0.602,-0.991c-3.142,3.21 -5.519,6.166 -7.278,8.89c2.724,-1.758 5.681,-4.136 8.891,-7.278c-0.366,-0.122 -0.708,-0.317 -0.992,-0.601Z" style="fill:#fff;fill-rule:nonzero;"/><path d="M86.169,7.691c3.455,0.707 6.176,3.428 6.883,6.883c0.707,-3.455 3.428,-6.176 6.882,-6.883c-3.454,-0.707 -6.175,-3.428 -6.882,-6.883c-0.707,3.455 -3.428,6.176 -6.883,6.883Z" style="fill:#fff;fill-rule:nonzero;"/><path d="M54.536,20.173c2.81,0.575 5.023,2.788 5.599,5.599c0.575,-2.811 2.789,-5.024 5.599,-5.599c-2.81,-0.576 -5.024,-2.789 -5.599,-5.599c-0.576,2.81 -2.789,5.023 -5.599,5.599Z" style="fill:#fff;fill-rule:nonzero;"/><path d="M114.778,86.401c2.81,0.575 5.024,2.789 5.599,5.599c0.575,-2.81 2.788,-5.024 5.599,-5.599c-2.811,-0.575 -5.024,-2.788 -5.599,-5.598c-0.575,2.81 -2.789,5.023 -5.599,5.598Z" style="fill:#fff;fill-rule:nonzero;"/><path d="M87.133,75.114c1.268,0.26 2.266,1.259 2.526,2.526c0.26,-1.267 1.258,-2.266 2.526,-2.526c-1.268,-0.26 -2.266,-1.258 -2.526,-2.526c-0.26,1.268 -1.258,2.266 -2.526,2.526Z" style="fill:#fff;fill-rule:nonzero;"/><path d="M68.742,35.17c1.268,0.26 2.266,1.259 2.526,2.527c0.26,-1.268 1.258,-2.267 2.526,-2.527c-1.268,-0.26 -2.266,-1.258 -2.526,-2.526c-0.26,1.268 -1.258,2.266 -2.526,2.526Z" style="fill:#fff;fill-rule:nonzero;"/></g></svg>