<?xml version="1.0" encoding="UTF-8" standalone="no"?><!DOCTYPE svg PUBLIC "-//W3C//DTD SVG 1.1//EN" "http://www.w3.org/Graphics/SVG/1.1/DTD/svg11.dtd"><svg width="100%" height="100%" viewBox="0 0 284 284" version="1.1" xmlns="http://www.w3.org/2000/svg" xmlns:xlink="http://www.w3.org/1999/xlink" xml:space="preserve" xmlns:serif="http://www.serif.com/" style="fill-rule:evenodd;clip-rule:evenodd;stroke-linejoin:round;stroke-miterlimit:1.41421;"><g><path d="M283.465,142.267c0,78.277 -63.456,141.732 -141.733,141.732c-78.277,0 -141.732,-63.455 -141.732,-141.732c0,-78.276 63.455,-141.732 141.732,-141.732c78.277,0 141.733,63.456 141.733,141.732Z" style="fill:url(#_Radial1);"/><path d="M214.994,82.54c-3.604,3.605 -9.448,3.605 -13.052,0c-3.605,-3.604 -3.605,-9.448 0,-13.053c3.604,-3.604 9.448,-3.604 13.052,0c3.605,3.605 3.605,9.449 0,13.053Zm14.52,-28.522c-18.298,2.446 -35.572,10.416 -49.191,24.035c-4.323,4.323 -9.525,10.464 -14.708,17.434l-10.463,0.742c-0.878,0.063 -1.75,0.005 -2.597,-0.164c1.943,-3.044 3.319,-6.353 4.125,-9.78c0.137,-0.579 -0.023,-1.168 -0.424,-1.569c-0.4,-0.401 -0.989,-0.561 -1.568,-0.425c-5.568,1.31 -10.827,4.117 -15.141,8.431c-3.108,3.109 -7.535,8.808 -10.644,14.222c-0.394,0.683 -0.271,1.55 0.151,2.387c-0.686,1.045 -1.17,2.186 -1.448,3.37c-0.046,0.193 0.007,0.389 0.141,0.523c0.134,0.133 0.329,0.187 0.523,0.142c1.183,-0.279 2.325,-0.763 3.37,-1.449c0.837,0.421 1.704,0.544 2.388,0.151c2.989,-1.717 6.063,-3.835 8.742,-5.911c0.984,-0.45 2.023,-0.833 3.092,-1.161l11.114,2.977c-2.196,3.422 -4.283,6.899 -6.183,10.341c-1.029,1.867 -0.671,4.268 0.508,6.639c-2.392,2.956 -4.94,6.558 -6.942,10.044c-0.394,0.684 -0.271,1.552 0.15,2.388c-0.686,1.045 -1.169,2.186 -1.448,3.37c-0.045,0.193 0.008,0.389 0.141,0.523c0.134,0.133 0.33,0.187 0.523,0.141c1.184,-0.278 2.325,-0.762 3.37,-1.447c0.837,0.42 1.704,0.543 2.388,0.15c3.487,-2.003 7.088,-4.551 10.044,-6.942c2.372,1.179 4.773,1.538 6.64,0.507c3.443,-1.898 6.919,-3.987 10.341,-6.182l2.978,11.114c-0.328,1.068 -0.711,2.107 -1.16,3.09c-2.077,2.679 -4.196,5.754 -5.913,8.744c-0.392,0.684 -0.27,1.551 0.151,2.388c-0.686,1.045 -1.169,2.186 -1.448,3.37c-0.046,0.193 0.007,0.389 0.141,0.523c0.134,0.134 0.33,0.187 0.523,0.141c1.184,-0.278 2.325,-0.762 3.371,-1.448c0.835,0.421 1.703,0.544 2.386,0.151c5.414,-3.109 11.114,-7.536 14.222,-10.644c4.313,-4.314 7.121,-9.572 8.432,-15.139c0.135,-0.579 -0.024,-1.168 -0.424,-1.569c-0.402,-0.401 -0.99,-0.562 -1.57,-0.425c-3.426,0.806 -6.735,2.182 -9.78,4.125c-0.169,-0.846 -0.226,-1.719 -0.164,-2.596l0.742,-10.465c6.97,-5.182 13.111,-10.384 17.434,-14.707c13.618,-13.618 21.589,-30.893 24.034,-49.189c0.035,-0.262 -0.054,-0.524 -0.24,-0.71c-0.186,-0.186 -0.448,-0.275 -0.709,-0.241Z" style="fill:#fff;fill-rule:nonzero;"/><path d="M204.117,71.663c-2.403,2.403 -2.403,6.299 0,8.702c2.403,2.403 6.299,2.403 8.702,0c2.403,-2.403 2.403,-6.299 0,-8.702c-2.403,-2.403 -6.299,-2.403 -8.702,0Z" style="fill:#fff;fill-rule:nonzero;"/><path d="M200.246,116.105c10.543,23.621 6.206,52.325 -13.147,71.678c-10.746,10.746 -24.992,17.35 -40.114,18.598c-5.028,0.414 -9.962,-1.398 -13.536,-4.972c-0.529,-0.53 -1.028,-1.098 -1.484,-1.693c-3.568,-4.649 -4.52,-10.719 -2.548,-16.235c5.607,-15.686 15.052,-30.084 21.517,-38.864c-1.024,0.393 -2.108,0.607 -3.239,0.473c-0.918,0.423 -1.878,0.752 -2.871,0.986c-1.818,0.428 -3.689,-0.101 -5.004,-1.416c-1.313,-1.313 -1.842,-3.183 -1.415,-5.001c0.234,-0.994 0.563,-1.955 0.985,-2.875c-0.175,-1.471 0.099,-2.912 0.821,-4.169c0.054,-0.096 0.128,-0.199 0.184,-0.295c-8.642,6.458 -23.529,16.418 -39.876,22.262c-5.527,1.976 -11.599,1.028 -16.243,-2.535c-0.593,-0.456 -1.162,-0.954 -1.69,-1.481c-3.572,-3.573 -5.384,-8.512 -4.968,-13.551c1.248,-15.123 7.853,-29.369 18.598,-40.114c19.528,-19.528 48.575,-23.763 72.314,-12.853c1.097,-1.324 2.174,-2.587 3.238,-3.796c-9.09,-4.411 -19.254,-6.956 -30.036,-6.956c-38.092,0 -68.972,30.879 -68.972,68.971c0,38.093 30.88,68.973 68.972,68.973c38.092,0 68.972,-30.88 68.972,-68.973c0,-10.53 -2.429,-20.471 -6.649,-29.399c-1.214,1.064 -2.481,2.141 -3.809,3.237Z" style="fill:#fff;fill-rule:nonzero;"/><path d="M214.994,82.54c-3.604,3.605 -9.448,3.605 -13.052,0c-3.605,-3.604 -3.605,-9.448 0,-13.053c3.604,-3.604 9.448,-3.604 13.052,0c3.605,3.605 3.605,9.449 0,13.053Zm14.52,-28.522c-18.298,2.446 -35.572,10.416 -49.191,24.035c-4.323,4.323 -9.525,10.464 -14.708,17.434l-10.463,0.742c-0.878,0.063 -1.75,0.005 -2.597,-0.164c1.943,-3.044 3.319,-6.353 4.125,-9.78c0.137,-0.579 -0.023,-1.168 -0.424,-1.569c-0.4,-0.401 -0.989,-0.561 -1.568,-0.425c-5.568,1.31 -10.827,4.117 -15.141,8.431c-3.108,3.109 -7.535,8.808 -10.644,14.222c-0.394,0.683 -0.271,1.55 0.151,2.387c-0.686,1.045 -1.17,2.186 -1.448,3.37c-0.046,0.193 0.007,0.389 0.141,0.523c0.134,0.133 0.329,0.187 0.523,0.142c1.183,-0.279 2.325,-0.763 3.37,-1.449c0.837,0.421 1.704,0.544 2.388,0.151c2.989,-1.717 6.063,-3.835 8.742,-5.911c0.984,-0.45 2.023,-0.833 3.092,-1.161l11.114,2.977c-2.196,3.422 -4.283,6.899 -6.183,10.341c-1.029,1.867 -0.671,4.268 0.508,6.639c-2.392,2.956 -4.94,6.558 -6.942,10.044c-0.394,0.684 -0.271,1.552 0.15,2.388c-0.686,1.045 -1.169,2.186 -1.448,3.37c-0.045,0.193 0.008,0.389 0.141,0.523c0.134,0.133 0.33,0.187 0.523,0.141c1.184,-0.278 2.325,-0.762 3.37,-1.447c0.837,0.42 1.704,0.543 2.388,0.15c3.487,-2.003 7.088,-4.551 10.044,-6.942c2.372,1.179 4.773,1.538 6.64,0.507c3.443,-1.898 6.919,-3.987 10.341,-6.182l2.978,11.114c-0.328,1.068 -0.711,2.107 -1.16,3.09c-2.077,2.679 -4.196,5.754 -5.913,8.744c-0.392,0.684 -0.27,1.551 0.151,2.388c-0.686,1.045 -1.169,2.186 -1.448,3.37c-0.046,0.193 0.007,0.389 0.141,0.523c0.134,0.134 0.33,0.187 0.523,0.141c1.184,-0.278 2.325,-0.762 3.371,-1.448c0.835,0.421 1.703,0.544 2.386,0.151c5.414,-3.109 11.114,-7.536 14.222,-10.644c4.313,-4.314 7.121,-9.572 8.432,-15.139c0.135,-0.579 -0.024,-1.168 -0.424,-1.569c-0.402,-0.401 -0.99,-0.562 -1.57,-0.425c-3.426,0.806 -6.735,2.182 -9.78,4.125c-0.169,-0.846 -0.226,-1.719 -0.164,-2.596l0.742,-10.465c6.97,-5.182 13.111,-10.384 17.434,-14.707c13.618,-13.618 21.589,-30.893 24.034,-49.189c0.035,-0.262 -0.054,-0.524 -0.24,-0.71c-0.186,-0.186 -0.448,-0.275 -0.709,-0.241Z" style="fill:#fff;fill-rule:nonzero;"/><path d="M204.117,71.663c-2.403,2.403 -2.403,6.299 0,8.702c2.403,2.403 6.299,2.403 8.702,0c2.403,-2.403 2.403,-6.299 0,-8.702c-2.403,-2.403 -6.299,-2.403 -8.702,0Z" style="fill:#fff;fill-rule:nonzero;"/><path d="M124.365,116.606c-0.007,-0.007 -0.011,-0.015 -0.018,-0.022c-0.007,-0.007 -0.016,-0.011 -0.023,-0.018c-0.594,-0.594 -1.004,-1.311 -1.26,-2.076c-6.582,6.723 -11.564,12.918 -15.248,18.625c5.707,-3.684 11.901,-8.665 18.625,-15.248c-0.765,-0.257 -1.482,-0.666 -2.076,-1.261Z" style="fill:#fff;fill-rule:nonzero;"/><path d="M167.875,160.117c-0.007,-0.007 -0.011,-0.016 -0.017,-0.023c-0.008,-0.007 -0.016,-0.011 -0.024,-0.017c-0.594,-0.595 -1.004,-1.312 -1.26,-2.078c-6.583,6.724 -11.564,12.919 -15.248,18.626c5.706,-3.684 11.902,-8.666 18.625,-15.248c-0.765,-0.257 -1.482,-0.667 -2.076,-1.26Z" style="fill:#fff;fill-rule:nonzero;"/><path d="M139.036,46.331c7.238,1.482 12.938,7.183 14.42,14.421c1.482,-7.238 7.183,-12.939 14.42,-14.421c-7.237,-1.482 -12.938,-7.182 -14.42,-14.42c-1.482,7.238 -7.182,12.938 -14.42,14.42Z" style="fill:#fff;fill-rule:nonzero;"/><path d="M72.76,72.482c5.888,1.205 10.525,5.843 11.73,11.731c1.206,-5.888 5.843,-10.526 11.731,-11.731c-5.888,-1.205 -10.525,-5.843 -11.731,-11.73c-1.205,5.887 -5.842,10.525 -11.73,11.73Z" style="fill:#fff;fill-rule:nonzero;"/><path d="M198.974,211.24c5.887,1.205 10.525,5.842 11.73,11.73c1.205,-5.888 5.843,-10.525 11.731,-11.73c-5.888,-1.206 -10.526,-5.843 -11.731,-11.731c-1.205,5.888 -5.843,10.525 -11.73,11.731Z" style="fill:#fff;fill-rule:nonzero;"/><path d="M141.055,187.591c2.656,0.544 4.749,2.636 5.293,5.293c0.544,-2.657 2.636,-4.749 5.293,-5.293c-2.657,-0.544 -4.749,-2.637 -5.293,-5.293c-0.544,2.656 -2.637,4.749 -5.293,5.293Z" style="fill:#fff;fill-rule:nonzero;"/><path d="M102.523,103.904c2.657,0.544 4.749,2.636 5.293,5.293c0.544,-2.657 2.636,-4.749 5.293,-5.293c-2.657,-0.544 -4.749,-2.637 -5.293,-5.293c-0.544,2.656 -2.636,4.749 -5.293,5.293Z" style="fill:#fff;fill-rule:nonzero;"/></g><defs><radialGradient id="_Radial1" cx="0" cy="0" r="1" gradientUnits="userSpaceOnUse" gradientTransform="matrix(228.054,1.30316,-1.30316,228.054,142.481,136.805)"><stop offset="0" style="stop-color:#203365;stop-opacity:1"/><stop offset="1" style="stop-color:#000121;stop-opacity:1"/></radialGradient></defs></svg>