<?xml version="1.0" encoding="UTF-8" standalone="no"?>
<!DOCTYPE svg PUBLIC "-//W3C//DTD SVG 1.1//EN" "http://www.w3.org/Graphics/SVG/1.1/DTD/svg11.dtd">
<svg width="2079px" height="342px" version="1.1" xmlns="http://www.w3.org/2000/svg" xmlns:xlink="http://www.w3.org/1999/xlink" xml:space="preserve" xmlns:serif="http://www.serif.com/" style="fill-rule:evenodd;clip-rule:evenodd;stroke-linejoin:round;stroke-miterlimit:2;">
    <g>
        <path d="M83.389,211.858C110.853,211.858 120.897,196.449 120.897,174.342C120.897,152.246 110.853,136.506 83.389,136.506L60.95,136.506L60.95,211.858L83.389,211.858ZM181.517,312.659L115.54,312.659L83.723,260.418L60.95,260.418L60.95,312.659L-0,312.659L-0,84.928L86.407,84.928C147.692,84.928 182.189,123.774 182.189,174.342C182.189,207.163 167.788,233.289 140.993,248.028L181.517,312.659Z" style="fill:white;fill-rule:nonzero;"/>
        <path d="M756.411,136.164L696.13,136.164L696.13,84.928L877.646,84.928L877.646,136.164L817.365,136.164L817.365,312.659L756.411,312.659L756.411,136.164Z" style="fill:white;fill-rule:nonzero;"/>
        <rect x="906.412" y="84.928" width="60.95" height="227.731" style="fill:white;"/>
        <path d="M1065.47,199.133L1065.47,312.659L1008.2,312.659L1008.2,81.909C1008.2,79.902 1009.21,78.229 1012.89,81.247L1155.89,199.133L1155.89,84.928L1213.17,84.928L1213.17,316.012C1213.17,318.692 1212.16,319.699 1208.48,316.677L1065.47,199.133Z" style="fill:white;fill-rule:nonzero;"/>
        <path d="M1344.4,194.773L1321.63,247.686L1367.84,247.686L1344.4,194.773ZM1293.83,312.659L1234.22,312.659L1345.07,80.905C1346.08,78.56 1348.08,78.56 1349.09,80.905L1459.61,312.659L1396.65,312.659L1387.94,293.243C1388.28,293.243 1302.2,293.243 1302.2,293.243L1293.83,312.659Z" style="fill:white;fill-rule:nonzero;"/>
        <path d="M1495.41,136.164L1435.13,136.164L1435.13,84.928L1616.65,84.928L1616.65,136.164L1556.36,136.164L1556.36,312.659L1495.41,312.659L1495.41,136.164Z" style="fill:white;fill-rule:nonzero;"/>
        <path d="M1977.59,211.858C2005.06,211.858 2015.1,196.449 2015.1,174.342C2015.1,152.246 2005.06,136.506 1977.59,136.506L1955.15,136.506L1955.15,211.858L1977.59,211.858ZM2075.72,312.659L2009.74,312.659L1977.93,260.418L1955.15,260.418L1955.15,312.659L1894.2,312.659L1894.2,84.928L1980.61,84.928C2041.9,84.928 2076.39,123.774 2076.39,174.342C2076.39,207.163 2061.99,233.289 2035.2,248.028L2075.72,312.659Z" style="fill:white;fill-rule:nonzero;"/>
        <path d="M1743.55,262.489C1708.38,262.489 1679.88,233.987 1679.88,198.825C1679.88,163.666 1708.38,135.161 1743.55,135.161C1778.7,135.161 1807.21,163.666 1807.21,198.825C1807.21,233.987 1778.7,262.489 1743.55,262.489ZM1743.55,76.463C1675.97,76.463 1621.18,131.246 1621.18,198.825C1621.18,266.407 1675.97,321.186 1743.55,321.186C1811.12,321.186 1865.91,266.407 1865.91,198.825C1865.91,131.246 1811.12,76.463 1743.55,76.463Z" style="fill:white;fill-rule:nonzero;"/>
        <path d="M610.106,84.928L610.106,223.913C610.106,249.701 598.05,264.437 572.263,264.437C546.471,264.437 534.416,249.701 534.416,223.913L534.416,84.928L480.425,84.928C478.373,90.002 476.012,94.916 473.462,99.726L473.462,224.579C473.462,285.871 515.327,316.008 572.263,316.008C629.194,316.008 671.06,285.871 671.06,224.579L671.06,84.928L610.106,84.928Z" style="fill:white;fill-rule:nonzero;"/>
        <path d="M455.102,92.834C448.704,99.232 438.336,99.232 431.939,92.834C425.545,86.441 425.545,76.073 431.939,69.675C438.336,63.281 448.704,63.281 455.102,69.675C461.496,76.073 461.496,86.441 455.102,92.834ZM480.859,42.23C448.395,46.568 417.746,60.709 393.583,84.872C385.91,92.544 376.683,103.44 367.486,115.808L348.918,117.124C347.36,117.235 345.814,117.135 344.312,116.834C347.758,111.429 350.201,105.559 351.632,99.481C351.873,98.455 351.591,97.407 350.881,96.697C350.167,95.987 349.123,95.701 348.097,95.942C338.216,98.266 328.885,103.247 321.231,110.901C315.718,116.418 307.863,126.533 302.347,136.138C301.648,137.35 301.867,138.889 302.614,140.372C301.399,142.227 300.54,144.25 300.046,146.35C299.964,146.692 300.057,147.041 300.295,147.279C300.532,147.514 300.878,147.61 301.224,147.528C303.324,147.038 305.347,146.179 307.201,144.963C308.685,145.707 310.227,145.926 311.439,145.227C316.74,142.183 322.197,138.425 326.952,134.741C328.695,133.941 330.539,133.261 332.435,132.681L352.156,137.964C348.26,144.038 344.554,150.205 341.186,156.313C339.357,159.621 339.996,163.885 342.085,168.089C337.844,173.335 333.32,179.725 329.766,185.914C329.071,187.126 329.287,188.665 330.037,190.148C328.818,192.003 327.959,194.026 327.465,196.13C327.387,196.472 327.48,196.817 327.718,197.055C327.956,197.293 328.301,197.386 328.643,197.308C330.747,196.814 332.77,195.955 334.625,194.739C336.108,195.483 337.647,195.702 338.863,195.003C345.048,191.449 351.438,186.929 356.684,182.687C360.888,184.777 365.152,185.416 368.464,183.587C374.572,180.219 380.743,176.513 386.813,172.617L392.096,192.338C391.516,194.234 390.835,196.078 390.04,197.821C386.356,202.576 382.594,208.029 379.546,213.337C378.85,214.549 379.07,216.088 379.813,217.571C378.598,219.426 377.739,221.452 377.245,223.553C377.167,223.895 377.259,224.24 377.497,224.478C377.735,224.716 378.081,224.813 378.423,224.731C380.527,224.237 382.549,223.378 384.404,222.162C385.888,222.91 387.427,223.125 388.638,222.426C398.244,216.914 408.359,209.059 413.872,203.542C421.526,195.888 426.507,186.557 428.835,176.68C429.076,175.654 428.794,174.61 428.08,173.896C427.37,173.186 426.322,172.903 425.299,173.145C419.218,174.572 413.344,177.015 407.943,180.461C407.645,178.963 407.541,177.413 407.653,175.855L408.969,157.287C421.337,148.093 432.232,138.863 439.901,131.194C464.064,107.031 478.205,76.381 482.547,43.914C482.61,43.453 482.45,42.988 482.116,42.657C481.789,42.326 481.324,42.166 480.859,42.23Z" style="fill:white;fill-rule:nonzero;"/>
        <path d="M435.801,73.537C431.537,77.801 431.537,84.712 435.801,88.976C440.065,93.24 446.975,93.24 451.239,88.976C455.503,84.712 455.503,77.801 451.239,73.537C446.975,69.274 440.065,69.274 435.801,73.537Z" style="fill:white;fill-rule:nonzero;"/>
        <path d="M428.931,152.391C447.637,194.301 439.942,245.233 405.605,279.57C386.538,298.637 361.26,310.354 334.428,312.569C325.506,313.302 316.751,310.086 310.41,303.744C309.473,302.808 308.588,301.796 307.778,300.741C301.447,292.492 299.759,281.726 303.257,271.935C313.205,244.106 329.963,218.557 341.435,202.977C339.617,203.68 337.695,204.059 335.692,203.821C334.06,204.568 332.357,205.152 330.595,205.568C327.368,206.33 324.049,205.39 321.714,203.055C319.383,200.728 318.447,197.408 319.205,194.182C319.618,192.42 320.205,190.717 320.952,189.081C320.644,186.472 321.127,183.918 322.409,181.684C322.506,181.516 322.636,181.331 322.736,181.16C307.402,192.62 280.99,210.293 251.983,220.661C242.177,224.17 231.404,222.486 223.166,216.163C222.11,215.352 221.103,214.471 220.166,213.534C213.828,207.196 210.613,198.431 211.352,189.494C213.568,162.658 225.285,137.38 244.348,118.317C278.998,83.667 330.536,76.154 372.657,95.511C374.605,93.162 376.516,90.92 378.401,88.775C362.275,80.95 344.238,76.433 325.108,76.433C257.522,76.433 202.732,131.224 202.732,198.81C202.732,266.399 257.522,321.186 325.108,321.186C392.698,321.186 447.488,266.399 447.488,198.81C447.488,180.126 443.176,162.487 435.689,146.647C433.537,148.536 431.288,150.447 428.931,152.391Z" style="fill:white;fill-rule:nonzero;"/>
        <path d="M455.102,92.834C448.704,99.232 438.336,99.232 431.939,92.834C425.545,86.441 425.545,76.073 431.939,69.675C438.336,63.281 448.704,63.281 455.102,69.675C461.496,76.073 461.496,86.441 455.102,92.834ZM480.859,42.23C448.395,46.568 417.746,60.709 393.583,84.872C385.91,92.544 376.683,103.44 367.486,115.808L348.918,117.124C347.36,117.235 345.814,117.135 344.312,116.834C347.758,111.429 350.201,105.559 351.632,99.481C351.873,98.455 351.591,97.407 350.881,96.697C350.167,95.987 349.123,95.701 348.097,95.942C338.216,98.266 328.885,103.247 321.231,110.901C315.718,116.418 307.863,126.533 302.347,136.138C301.648,137.35 301.867,138.889 302.614,140.372C301.399,142.227 300.54,144.25 300.046,146.35C299.964,146.692 300.057,147.041 300.295,147.279C300.532,147.514 300.878,147.61 301.224,147.528C303.324,147.038 305.347,146.179 307.201,144.963C308.685,145.707 310.227,145.926 311.439,145.227C316.74,142.183 322.197,138.425 326.952,134.741C328.695,133.941 330.539,133.261 332.435,132.681L352.156,137.964C348.26,144.038 344.554,150.205 341.186,156.313C339.357,159.621 339.996,163.885 342.085,168.089C337.844,173.335 333.32,179.725 329.766,185.914C329.071,187.126 329.287,188.665 330.037,190.148C328.818,192.003 327.959,194.026 327.465,196.13C327.387,196.472 327.48,196.817 327.718,197.055C327.956,197.293 328.301,197.386 328.643,197.308C330.747,196.814 332.77,195.955 334.625,194.739C336.108,195.483 337.647,195.702 338.863,195.003C345.048,191.449 351.438,186.929 356.684,182.687C360.888,184.777 365.152,185.416 368.464,183.587C374.572,180.219 380.743,176.513 386.813,172.617L392.096,192.338C391.516,194.234 390.835,196.078 390.04,197.821C386.356,202.576 382.594,208.029 379.546,213.337C378.85,214.549 379.07,216.088 379.813,217.571C378.598,219.426 377.739,221.452 377.245,223.553C377.167,223.895 377.259,224.24 377.497,224.478C377.735,224.716 378.081,224.813 378.423,224.731C380.527,224.237 382.549,223.378 384.404,222.162C385.888,222.91 387.427,223.125 388.638,222.426C398.244,216.914 408.359,209.059 413.872,203.542C421.526,195.888 426.507,186.557 428.835,176.68C429.076,175.654 428.794,174.61 428.08,173.896C427.37,173.186 426.322,172.903 425.299,173.145C419.218,174.572 413.344,177.015 407.943,180.461C407.645,178.963 407.541,177.413 407.653,175.855L408.969,157.287C421.337,148.093 432.232,138.863 439.901,131.194C464.064,107.031 478.205,76.381 482.547,43.914C482.61,43.453 482.45,42.988 482.116,42.657C481.789,42.326 481.324,42.166 480.859,42.23Z" style="fill:white;fill-rule:nonzero;"/>
        <path d="M435.801,73.537C431.537,77.801 431.537,84.712 435.801,88.976C440.065,93.24 446.975,93.24 451.239,88.976C455.503,84.712 455.503,77.801 451.239,73.537C446.975,69.274 440.065,69.274 435.801,73.537Z" style="fill:white;fill-rule:nonzero;"/>
        <path d="M294.295,153.279C294.28,153.268 294.276,153.253 294.261,153.242C294.25,153.227 294.235,153.223 294.22,153.209C293.168,152.157 292.44,150.881 291.986,149.525C280.306,161.454 271.466,172.446 264.931,182.572C275.057,176.033 286.05,167.197 297.979,155.517C296.618,155.06 295.347,154.335 294.295,153.279Z" style="fill:white;fill-rule:nonzero;"/>
        <path d="M371.494,230.482C371.483,230.467 371.475,230.452 371.464,230.441C371.449,230.43 371.434,230.422 371.423,230.408C370.367,229.356 369.639,228.084 369.185,226.724C357.505,238.657 348.669,249.645 342.13,259.771C352.256,253.236 363.249,244.396 375.181,232.716C373.821,232.263 372.55,231.538 371.494,230.482Z" style="fill:white;fill-rule:nonzero;"/>
        <path d="M320.324,28.59C333.167,31.219 343.283,41.334 345.911,54.177C348.539,41.334 358.654,31.219 371.494,28.59C358.654,25.962 348.539,15.847 345.911,3.004C343.283,15.847 333.167,25.962 320.324,28.59Z" style="fill:white;fill-rule:nonzero;"/>
        <path d="M202.732,74.991C213.178,77.128 221.404,85.355 223.545,95.805C225.683,85.355 233.913,77.128 244.359,74.991C233.913,72.85 225.683,64.623 223.545,54.177C221.404,64.623 213.178,72.85 202.732,74.991Z" style="fill:white;fill-rule:nonzero;"/>
        <path d="M426.675,321.186C437.121,323.324 445.351,331.554 447.488,342C449.626,331.554 457.853,323.324 468.302,321.186C457.853,319.049 449.626,310.822 447.488,300.376C445.351,310.822 437.121,319.049 426.675,321.186Z" style="fill:white;fill-rule:nonzero;"/>
        <path d="M323.907,279.228C328.621,280.195 332.331,283.908 333.298,288.618C334.264,283.908 337.974,280.195 342.688,279.228C337.974,278.262 334.264,274.552 333.298,269.838C332.331,274.552 328.621,278.262 323.907,279.228Z" style="fill:white;fill-rule:nonzero;"/>
        <path d="M255.541,130.741C260.255,131.707 263.965,135.421 264.931,140.135C265.898,135.421 269.608,131.707 274.321,130.741C269.608,129.774 265.898,126.064 264.931,121.351C263.965,126.064 260.255,129.774 255.541,130.741Z" style="fill:white;fill-rule:nonzero;"/>
    </g>
</svg>
