<svg width="100" height="100" xmlns="http://www.w3.org/2000/svg"><g fill="none"><path d="M0 0h100v100H0z" fill="#001F6D"/><g fill="#FFF"><path d="M39.354 23.762c-1.054.25-2.244-.696-2.688-2.147-.444-1.451.039-2.823 1.064-3.075 1.045-.24 2.244.696 2.71 2.147.445 1.43-.04 2.824-1.083 3.075h-.003zm-1.508 58.715c-1.044-.193-1.566-1.547-1.16-3.017.406-1.47 1.586-2.514 2.63-2.32 1.044.194 1.566 1.547 1.16 3.017-.387 1.5-1.586 2.514-2.63 2.32zm5.26-47.497c-1.547.387-3.326-1.025-3.984-3.172-.658-2.127.058-4.158 1.586-4.545 1.528-.387 3.326 1.025 3.984 3.172.677 2.127-.04 4.158-1.586 4.545zm-1.818 39.355c-1.45-.25-2.147-2.224-1.566-4.4.58-2.166 2.243-3.733 3.694-3.48 1.451.253 2.147 2.224 1.566 4.4-.58 2.166-2.243 3.733-3.694 3.48zm4.12-25.635c-1.953.213-3.8-1.818-4.14-4.545-.34-2.727 1.006-5.106 2.96-5.338 1.953-.213 3.8 1.818 4.14 4.545.34 2.727-1.006 5.125-2.96 5.338zM44.17 62.13c-1.973 0-3.5-2.224-3.423-4.97.077-2.746 1.74-5 3.713-5s3.5 2.224 3.423 4.97c-.097 2.746-1.76 5-3.713 5zm6.77-32.78c-.793.193-1.702-.522-2.03-1.625-.33-1.083.02-2.127.812-2.32.792-.193 1.702.522 2.03 1.625.33 1.083-.02 2.127-.812 2.32zm-1.14 44.2c-.793-.135-1.18-1.16-.87-2.263.31-1.103 1.2-1.895 1.992-1.74.793.135 1.18 1.16.87 2.263-.31 1.103-1.2 1.876-1.992 1.74zm3.952-35.767c-1.16.3-2.495-.774-2.998-2.38-.503-1.606.04-3.133 1.2-3.423 1.16-.29 2.495.774 2.998 2.38.503 1.606-.04 3.133-1.2 3.423zM52.39 67.4c-1.102-.193-1.625-1.683-1.18-3.326.445-1.643 1.683-2.804 2.785-2.6 1.102.204 1.625 1.683 1.18 3.307-.445 1.644-1.683 2.824-2.785 2.63V67.4zm3.092-19.3c-1.47.155-2.862-1.373-3.114-3.423-.252-2.05.754-3.85 2.224-4.023 1.47-.155 2.882 1.373 3.114 3.423.25 2.07-.735 3.868-2.224 4.023zm-.928 10.125c-1.5 0-2.63-1.683-2.572-3.752.058-2.069 1.315-3.752 2.785-3.752 1.5 0 2.65 1.663 2.572 3.752-.058 2.07-1.296 3.752-2.785 3.752zm5.183-23.285c-.542.135-1.16-.367-1.392-1.102-.232-.735.02-1.45.56-1.586.54-.136 1.16.367 1.392 1.102.213.735-.02 1.45-.56 1.586zm-.774 30.208c-.542-.097-.812-.793-.6-1.547.212-.754.812-1.296 1.354-1.2.542.096.812.793.6 1.547-.212.754-.812 1.296-1.354 1.2zm2.707-24.445c-.793.193-1.702-.522-2.05-1.625-.348-1.103.02-2.147.812-2.34.792-.193 1.702.542 2.05 1.625.33 1.102-.02 2.147-.812 2.34zm-.947 20.25c-.754-.135-1.102-1.14-.812-2.263.3-1.122 1.16-1.915 1.895-1.78.754.135 1.102 1.14.812 2.263-.3 1.102-1.14 1.915-1.895 1.78zm2.127-13.191c-1.006.116-1.973-.928-2.127-2.34-.174-1.412.522-2.63 1.528-2.746 1.006-.116 1.973.928 2.127 2.34.154 1.412-.522 2.63-1.528 2.746zm-.638 6.904c-1.006 0-1.8-1.14-1.76-2.553.04-1.413.9-2.572 1.915-2.572 1.006 0 1.8 1.14 1.76 2.553-.058 1.43-.9 2.572-1.915 2.572z"/><path d="M38.854 23.262c-1.054.25-2.244-.696-2.688-2.147-.444-1.451.039-2.823 1.064-3.075 1.045-.24 2.244.696 2.71 2.147.445 1.43-.04 2.824-1.083 3.075h-.003zm-1.508 58.715c-1.044-.193-1.566-1.547-1.16-3.017.406-1.47 1.586-2.514 2.63-2.32 1.044.194 1.566 1.547 1.16 3.017-.387 1.5-1.586 2.514-2.63 2.32zm5.26-47.497c-1.547.387-3.326-1.025-3.984-3.172-.658-2.127.058-4.158 1.586-4.545 1.528-.387 3.326 1.025 3.984 3.172.677 2.127-.04 4.158-1.586 4.545zm-1.818 39.355c-1.45-.25-2.147-2.224-1.566-4.4.58-2.166 2.243-3.733 3.694-3.48 1.451.253 2.147 2.224 1.566 4.4-.58 2.166-2.243 3.733-3.694 3.48zm4.12-25.635c-1.953.213-3.8-1.818-4.14-4.545-.34-2.727 1.006-5.106 2.96-5.338 1.953-.213 3.8 1.818 4.14 4.545.34 2.727-1.006 5.125-2.96 5.338zM43.67 61.63c-1.973 0-3.5-2.224-3.423-4.97.077-2.746 1.74-5 3.713-5s3.5 2.224 3.423 4.97c-.097 2.746-1.76 5-3.713 5zm6.77-32.78c-.793.193-1.702-.522-2.03-1.625-.33-1.083.02-2.127.812-2.32.792-.193 1.702.522 2.03 1.625.33 1.083-.02 2.127-.812 2.32zm-1.14 44.2c-.793-.135-1.18-1.16-.87-2.263.31-1.103 1.2-1.895 1.992-1.74.793.135 1.18 1.16.87 2.263-.31 1.103-1.2 1.876-1.992 1.74zm3.952-35.767c-1.16.3-2.495-.774-2.998-2.38-.503-1.606.04-3.133 1.2-3.423 1.16-.29 2.495.774 2.998 2.38.503 1.606-.04 3.133-1.2 3.423zM51.89 66.9c-1.102-.193-1.625-1.683-1.18-3.326.445-1.643 1.683-2.804 2.785-2.6 1.102.204 1.625 1.683 1.18 3.307-.445 1.644-1.683 2.824-2.785 2.63V66.9zm3.092-19.3c-1.47.155-2.862-1.373-3.114-3.423-.252-2.05.754-3.85 2.224-4.023 1.47-.155 2.882 1.373 3.114 3.423.25 2.07-.735 3.868-2.224 4.023zm-.928 10.125c-1.5 0-2.63-1.683-2.572-3.752.058-2.069 1.315-3.752 2.785-3.752 1.5 0 2.65 1.663 2.572 3.752-.058 2.07-1.296 3.752-2.785 3.752zm5.183-23.285c-.542.135-1.16-.367-1.392-1.102-.232-.735.02-1.45.56-1.586.54-.136 1.16.367 1.392 1.102.213.735-.02 1.45-.56 1.586zm-.774 30.208c-.542-.097-.812-.793-.6-1.547.212-.754.812-1.296 1.354-1.2.542.096.812.793.6 1.547-.212.754-.812 1.296-1.354 1.2zm2.707-24.445c-.793.193-1.702-.522-2.05-1.625-.348-1.103.02-2.147.812-2.34.792-.193 1.702.542 2.05 1.625.33 1.102-.02 2.147-.812 2.34zm-.947 20.25c-.754-.135-1.102-1.14-.812-2.263.3-1.122 1.16-1.915 1.895-1.78.754.135 1.102 1.14.812 2.263-.3 1.102-1.14 1.915-1.895 1.78zm2.127-13.191c-1.006.116-1.973-.928-2.127-2.34-.174-1.412.522-2.63 1.528-2.746 1.006-.116 1.973.928 2.127 2.34.154 1.412-.522 2.63-1.528 2.746zm-.638 6.904c-1.006 0-1.8-1.14-1.76-2.553.04-1.413.9-2.572 1.915-2.572 1.006 0 1.8 1.14 1.76 2.553-.058 1.43-.9 2.572-1.915 2.572z"/></g></g></svg>