<svg viewBox="0 0 559 92" xmlns="http://www.w3.org/2000/svg" fill-rule="evenodd" clip-rule="evenodd" stroke-linejoin="round" stroke-miterlimit="1.414"><g fill="#fff" fill-rule="nonzero"><path d="M22.432 56.991c7.388 0 10.09-4.145 10.09-10.092 0-5.944-2.702-10.178-10.09-10.178h-6.036v20.27h6.036zm26.397 27.116H31.081l-8.559-14.053h-6.126v14.053H0V22.846h23.244c16.486 0 25.766 10.45 25.766 24.053 0 8.829-3.874 15.857-11.082 19.822l10.901 17.386zm154.65-47.478h-16.216V22.846h48.829v13.783h-16.216v47.478h-16.397V36.629zm40.351-13.783h16.396v61.261H243.83zm42.788 30.722v30.539h-15.406V22.034c0-.54.27-.99 1.261-.178l38.469 31.712V22.846h15.407v62.163c0 .721-.271.992-1.262.179l-38.469-31.62zm75.034-1.173l-6.127 14.234h12.433l-6.306-14.234zm-13.604 31.712h-16.036l29.82-62.343c.27-.631.81-.631 1.081 0l29.73 62.343h-16.937l-2.343-5.223H350.3l-2.252 5.223zm54.226-47.478h-16.216V22.846h48.83v13.783h-16.217v47.478h-16.397V36.629zm129.71 20.362c7.388 0 10.09-4.145 10.09-10.092 0-5.944-2.702-10.178-10.09-10.178h-6.036v20.27h6.036zm26.397 27.116h-17.748l-8.559-14.053h-6.126v14.053h-16.396V22.846h23.244c16.486 0 25.765 10.45 25.765 24.053 0 8.829-3.874 15.857-11.081 19.822l10.901 17.386zm-89.357-13.496c-9.459 0-17.126-7.667-17.126-17.126 0-9.458 7.667-17.126 17.126-17.126 9.458 0 17.125 7.668 17.125 17.126 0 9.459-7.667 17.126-17.125 17.126zm0-50.042c-18.179 0-32.917 14.737-32.917 32.916 0 18.18 14.738 32.916 32.917 32.916 18.179 0 32.916-14.736 32.916-32.916 0-18.179-14.737-32.916-32.916-32.916zm-304.902 2.277v37.388c0 6.937-3.243 10.901-10.18 10.901-6.938 0-10.181-3.964-10.181-10.901V22.846h-14.524a42.623 42.623 0 01-1.873 3.981v33.586c0 16.488 11.262 24.595 26.578 24.595 15.315 0 26.577-8.107 26.577-24.595V22.846h-16.397zm-41.697 2.127a4.405 4.405 0 11-6.231-6.23 4.405 4.405 0 016.231 6.23zm6.929-13.613c-8.733 1.167-16.978 4.971-23.478 11.471-2.064 2.064-4.546 4.995-7.02 8.322l-4.995.354a4.62 4.62 0 01-1.239-.078 15.123 15.123 0 001.969-4.668.795.795 0 00-.202-.749.796.796 0 00-.749-.203 15.055 15.055 0 00-7.227 4.024c-1.483 1.484-3.596 4.205-5.08 6.789-.188.326-.129.74.072 1.139a5.036 5.036 0 00-.691 1.608.264.264 0 00.067.25.266.266 0 00.25.067 5.011 5.011 0 001.608-.69c.399.2.814.259 1.14.071a37.66 37.66 0 004.173-2.821c.469-.215.965-.398 1.475-.554l5.305 1.421a87.167 87.167 0 00-2.951 4.936c-.492.89-.32 2.037.242 3.168-1.141 1.411-2.358 3.13-3.314 4.795-.187.326-.129.74.073 1.139a5.012 5.012 0 00-.692 1.609.265.265 0 00.068.249.265.265 0 00.249.068 5.032 5.032 0 001.609-.691c.399.2.813.259 1.14.071 1.664-.956 3.383-2.172 4.794-3.313 1.131.562 2.278.734 3.169.242a86.815 86.815 0 004.936-2.951l1.421 5.305c-.156.51-.339 1.006-.553 1.475-.991 1.279-2.003 2.746-2.823 4.174-.187.326-.128.74.072 1.139a5.041 5.041 0 00-.691 1.609.265.265 0 00.068.249c.064.064.157.09.249.068a5.032 5.032 0 001.609-.691c.399.201.813.259 1.139.071 2.584-1.483 5.305-3.596 6.788-5.08a15.067 15.067 0 004.025-7.226.794.794 0 00-.203-.749.794.794 0 00-.748-.202 15.082 15.082 0 00-4.669 1.968 4.658 4.658 0 01-.078-1.239l.354-4.995c3.327-2.473 6.258-4.956 8.321-7.019 6.5-6.5 10.304-14.745 11.472-23.479a.4.4 0 00-.116-.338.4.4 0 00-.338-.115z"/><path d="M117.233 19.782a2.936 2.936 0 104.152 4.153 2.936 2.936 0 00-4.152-4.153zm-1.848 21.212c5.032 11.274 2.962 24.975-6.275 34.212a30.682 30.682 0 01-19.147 8.877 8.177 8.177 0 01-7.169-3.182 8.165 8.165 0 01-1.216-7.749c2.676-7.486 7.184-14.359 10.27-18.55-.489.189-1.006.291-1.545.227a7.347 7.347 0 01-1.371.47 2.533 2.533 0 01-2.389-.676 2.532 2.532 0 01-.675-2.387c.111-.474.269-.932.47-1.372a3.203 3.203 0 01.392-1.99c.026-.045.061-.095.088-.141-4.125 3.083-11.23 7.837-19.033 10.626a8.163 8.163 0 01-7.752-1.21 8.177 8.177 0 01-3.178-7.174 30.681 30.681 0 018.876-19.147c9.321-9.321 23.185-11.342 34.516-6.135a83.067 83.067 0 011.545-1.812c-4.338-2.105-9.19-3.32-14.336-3.32-18.181 0-32.92 14.739-32.92 32.92 0 18.182 14.739 32.92 32.92 32.92 18.182 0 32.921-14.738 32.921-32.92 0-5.026-1.16-9.771-3.174-14.032a78.431 78.431 0 01-1.818 1.545z"/><path d="M122.425 24.973a4.405 4.405 0 11-6.231-6.23 4.405 4.405 0 016.231 6.23zm6.929-13.613c-8.733 1.167-16.978 4.971-23.478 11.471-2.064 2.064-4.546 4.995-7.02 8.322l-4.995.354a4.62 4.62 0 01-1.239-.078 15.123 15.123 0 001.969-4.668.795.795 0 00-.202-.749.796.796 0 00-.749-.203 15.055 15.055 0 00-7.227 4.024c-1.483 1.484-3.596 4.205-5.08 6.789-.188.326-.129.74.072 1.139a5.036 5.036 0 00-.691 1.608.264.264 0 00.067.25.266.266 0 00.25.067 5.011 5.011 0 001.608-.69c.399.2.814.259 1.14.071a37.66 37.66 0 004.173-2.821c.469-.215.965-.398 1.475-.554l5.305 1.421a87.167 87.167 0 00-2.951 4.936c-.492.89-.32 2.037.242 3.168-1.141 1.411-2.358 3.13-3.314 4.795-.187.326-.129.74.073 1.139a5.012 5.012 0 00-.692 1.609.265.265 0 00.068.249.265.265 0 00.249.068 5.032 5.032 0 001.609-.691c.399.2.813.259 1.14.071 1.664-.956 3.383-2.172 4.794-3.313 1.131.562 2.278.734 3.169.242a86.815 86.815 0 004.936-2.951l1.421 5.305c-.156.51-.339 1.006-.553 1.475-.991 1.279-2.003 2.746-2.823 4.174-.187.326-.128.74.072 1.139a5.041 5.041 0 00-.691 1.609.265.265 0 00.068.249c.064.064.157.09.249.068a5.032 5.032 0 001.609-.691c.399.201.813.259 1.139.071 2.584-1.483 5.305-3.596 6.788-5.08a15.067 15.067 0 004.025-7.226.794.794 0 00-.203-.749.794.794 0 00-.748-.202 15.082 15.082 0 00-4.669 1.968 4.658 4.658 0 01-.078-1.239l.354-4.995c3.327-2.473 6.258-4.956 8.321-7.019 6.5-6.5 10.304-14.745 11.472-23.479a.4.4 0 00-.116-.338.4.4 0 00-.338-.115z"/><path d="M117.233 19.782a2.936 2.936 0 104.152 4.153 2.936 2.936 0 00-4.152-4.153zM79.167 41.233l-.009-.01c-.003-.004-.007-.005-.011-.009a2.519 2.519 0 01-.601-.991c-3.142 3.209-5.52 6.166-7.278 8.89 2.724-1.759 5.681-4.136 8.89-7.278a2.514 2.514 0 01-.991-.602zm20.767 20.768l-.008-.011c-.004-.003-.008-.005-.011-.009a2.502 2.502 0 01-.602-.991c-3.142 3.21-5.519 6.166-7.278 8.89 2.724-1.758 5.681-4.136 8.891-7.278a2.51 2.51 0 01-.992-.601zM86.169 7.691a8.856 8.856 0 016.883 6.883 8.856 8.856 0 016.882-6.883A8.856 8.856 0 0193.052.808a8.856 8.856 0 01-6.883 6.883zM54.536 20.173a7.205 7.205 0 015.599 5.599 7.203 7.203 0 015.599-5.599 7.206 7.206 0 01-5.599-5.599 7.207 7.207 0 01-5.599 5.599zm60.242 66.228A7.205 7.205 0 01120.377 92a7.203 7.203 0 015.599-5.599 7.202 7.202 0 01-5.599-5.598 7.204 7.204 0 01-5.599 5.598zM87.133 75.114a3.253 3.253 0 012.526 2.526 3.253 3.253 0 012.526-2.526 3.251 3.251 0 01-2.526-2.526 3.251 3.251 0 01-2.526 2.526zM68.742 35.17a3.252 3.252 0 012.526 2.527 3.252 3.252 0 012.526-2.527 3.251 3.251 0 01-2.526-2.526 3.251 3.251 0 01-2.526 2.526z"/></g></svg>